<svg id="en97xu9ih6k1" xmlns="http://www.w3.org/2000/svg" xmlns:xlink="http://www.w3.org/1999/xlink" viewBox="0 0 108 84" shape-rendering="geometricPrecision" text-rendering="geometricPrecision"><style><![CDATA[#en97xu9ih6k6_to {animation: en97xu9ih6k6_to__to 10000ms linear infinite normal forwards}@keyframes en97xu9ih6k6_to__to { 0% {transform: translate(46.351700px,60.381538px)} 5% {transform: translate(40px,60.381538px)} 10% {transform: translate(40px,60.381538px)} 15% {transform: translate(40px,60.381538px)} 20% {transform: translate(46.350000px,60.381538px)} 25% {transform: translate(46.350000px,60.381538px)} 30% {transform: translate(46.350000px,60.381538px)} 35% {transform: translate(51px,60.381538px)} 40% {transform: translate(51px,60.381538px)} 45% {transform: translate(51px,60.381538px)} 50% {transform: translate(46.350000px,60.381538px)} 55% {transform: translate(46.350000px,60.381538px)} 60% {transform: translate(46.350000px,60.381538px)} 100% {transform: translate(46.350000px,60.381538px)} }#en97xu9ih6k6 {animation: en97xu9ih6k6_c_o 10000ms linear infinite normal forwards}@keyframes en97xu9ih6k6_c_o { 0% {opacity: 1} 55% {opacity: 1} 56% {opacity: 0} 58% {opacity: 1} 59% {opacity: 0} 61% {opacity: 1} 100% {opacity: 1} }#en97xu9ih6k11_to {animation: en97xu9ih6k11_to__to 10000ms linear infinite normal forwards}@keyframes en97xu9ih6k11_to__to { 0% {transform: translate(84.295876px,60.519287px)} 5% {transform: translate(80px,60.519287px)} 10% {transform: translate(80px,60.519287px)} 15% {transform: translate(80px,60.519287px)} 20% {transform: translate(84.300000px,60.519287px)} 25% {transform: translate(84.300000px,60.519287px)} 30% {transform: translate(84.300000px,60.519287px)} 35% {transform: translate(91px,60.519287px)} 40% {transform: translate(91px,60.519287px)} 45% {transform: translate(91px,60.519287px)} 50% {transform: translate(84.300000px,60.519287px)} 55% {transform: translate(84.300000px,60.519287px)} 60% {transform: translate(84.300000px,60.519287px)} 100% {transform: translate(84.300000px,60.519287px)} }#en97xu9ih6k11 {animation: en97xu9ih6k11_c_o 10000ms linear infinite normal forwards}@keyframes en97xu9ih6k11_c_o { 0% {opacity: 1} 55% {opacity: 1} 56% {opacity: 0} 58% {opacity: 1} 59% {opacity: 0} 61% {opacity: 1} 100% {opacity: 1} }]]></style><g id="en97xu9ih6k2"><rect id="en97xu9ih6k3" width="582" height="402" rx="0" ry="0" transform="matrix(1 0 0 1 -1 -1)" fill="none" stroke="none" stroke-width="1"/></g><g id="en97xu9ih6k4"><path id="en97xu9ih6k5" d="M29.649650,58.384100L29.649650,49.516100L45.272650,49.516100C46.468360,49.582600,46.312050,49.565500,46.349350,49.568100L44.091350,53.950100L34.113350,53.950100L34.113350,58.384100C34.113350,64.496400,39.119450,69.469200,45.272650,69.469200L46.388550,69.469200L56.431950,69.469200L56.431950,65.035200C56.431950,60.188800,53.265050,56.104900,48.895050,54.604000L46.427750,49.572400C54.502650,50.164300,60.895650,56.867700,60.895650,65.035200L60.895650,69.469200C60.895650,71.914600,58.893650,73.903200,56.431950,73.903200L45.272650,73.903200C40.966250,73.903200,37.060500,72.162300,34.231350,69.351960C32.816770,67.946800,31.671350,66.274270,30.879560,64.418310C30.483670,63.490340,30.176190,62.516500,29.967690,61.507300C29.915560,61.255000,29.869620,61.000490,29.830030,60.743930C29.790440,60.487380,29.757200,60.228770,29.730480,59.968290C29.703760,59.707800,29.683550,59.445440,29.670020,59.181350C29.663260,59.049310,29.658170,58.916840,29.654770,58.783950C29.653060,58.717510,29.651790,58.650970,29.650930,58.584320C29.650080,58.517680,29.649650,58.450940,29.649650,58.384100ZM84.290850,49.572400C84.297550,49.561300,84.330050,49.516100,84.330050,49.516100L84.369350,49.568100C84.406550,49.565500,84.443850,49.563000,84.481050,49.560400C84.800750,49.538200,85.120150,49.516100,85.446050,49.516100L101.068850,49.516100L101.068850,58.384100C101.068850,66.939600,94.058750,73.903200,85.446050,73.903200L74.286750,73.903200C71.825050,73.903200,69.823050,71.914600,69.823050,69.469200L69.823050,65.035200C69.823050,56.867700,76.216050,50.164300,84.290850,49.572400ZM96.605250,53.950100C92.893450,53.883480,85.348250,53.653900,81.823650,54.604000C77.453650,56.104900,74.286750,60.188800,74.286750,65.035200L74.286750,69.469200L85.446050,69.469200C91.599250,69.469200,96.605250,64.496400,96.605250,58.384100L96.605250,53.950100Z" clip-rule="evenodd" fill="rgb(197,225,230)" fill-rule="evenodd" stroke="none" stroke-width="1"/><g id="en97xu9ih6k6_to" transform="translate(46.351700,60.381538)"><path id="en97xu9ih6k6" d="M46.390900,51.345161C46.384200,51.335050,46.351700,51.293877,46.351700,51.293877L46.312500,51.341244L44.054500,55.332817C43.469700,56.776779,43.003900,58.513505,43.003900,60.381584C43.003900,65.399926,46.351700,69.469200,46.351700,69.469200C46.351700,69.469200,49.699500,65.399927,49.699500,60.381584C49.699500,58.753802,49.333600,57.249174,48.858200,55.928456L46.390900,51.345160Z" transform="translate(-46.351700,-60.381538)" fill="rgb(197,225,230)" stroke="none" stroke-width="1"/></g><path id="en97xu9ih6k7" d="M10.312300,32.348400C7.594840,32.348400,5.492900,31.651600,4.006450,30.258100C2.520000,28.841300,1.718710,26.913500,1.602580,24.474800L1.567740,22.941900L1.602580,21.409000C1.718710,18.993500,2.531610,17.077400,4.041290,15.660600C5.550970,14.243900,7.641290,13.535500,10.312300,13.535500C12.983200,13.535500,15.073500,14.243900,16.583200,15.660600C18.092900,17.077400,18.905800,18.993500,19.021900,21.409000C19.045200,21.687700,19.056800,22.198700,19.056800,22.941900C19.056800,23.685200,19.045200,24.196100,19.021900,24.474800C18.905800,26.913500,18.104500,28.841300,16.618100,30.258100C15.131600,31.651600,13.029700,32.348400,10.312300,32.348400ZM10.312300,28.899400C11.543200,28.899400,12.495500,28.516100,13.169000,27.749700C13.842600,26.960000,14.214200,25.810300,14.283900,24.300600C14.307100,24.068400,14.318700,23.615500,14.318700,22.941900C14.318700,22.268400,14.307100,21.815500,14.283900,21.583200C14.214200,20.073500,13.842600,18.935500,13.169000,18.169000C12.495500,17.379400,11.543200,16.984500,10.312300,16.984500C9.081290,16.984500,8.129030,17.379400,7.455480,18.169000C6.781940,18.935500,6.410320,20.073500,6.340650,21.583200L6.305810,22.941900L6.340650,24.300600C6.410320,25.810300,6.781940,26.960000,7.455480,27.749700C8.129030,28.516100,9.081290,28.899400,10.312300,28.899400ZM23.752900,32C23.520700,32,23.323200,31.918700,23.160700,31.756100C22.998100,31.593500,22.916800,31.396100,22.916800,31.163900L22.916800,14.720000C22.916800,14.487700,22.998100,14.290300,23.160700,14.127700C23.323200,13.965200,23.520700,13.883900,23.752900,13.883900L26.609700,13.883900C26.842000,13.883900,27.039400,13.965200,27.202000,14.127700C27.364500,14.290300,27.445800,14.487700,27.445800,14.720000L27.445800,16.148400C28.816100,14.406500,30.755500,13.535500,33.263900,13.535500C35.400700,13.535500,37.096100,14.243900,38.350300,15.660600C39.604500,17.054200,40.231600,18.958700,40.231600,21.374200L40.231600,31.163900C40.231600,31.396100,40.150300,31.593500,39.987800,31.756100C39.848400,31.918700,39.651000,32,39.395500,32L36.329700,32C36.097400,32,35.900000,31.918700,35.737400,31.756100C35.574900,31.593500,35.493600,31.396100,35.493600,31.163900L35.493600,21.583200C35.493600,20.212900,35.156800,19.156100,34.483200,18.412900C33.832900,17.646500,32.880700,17.263200,31.626500,17.263200C30.395500,17.263200,29.420000,17.646500,28.700000,18.412900C28.003200,19.179400,27.654900,20.236100,27.654900,21.583200L27.654900,31.163900C27.654900,31.396100,27.573600,31.593500,27.411000,31.756100C27.271600,31.918700,27.074200,32,26.818700,32L23.752900,32ZM45.527900,32C45.295700,32,45.098300,31.918700,44.935700,31.756100C44.773100,31.593500,44.691800,31.396100,44.691800,31.163900L44.691800,8.100640C44.691800,7.845160,44.773100,7.647740,44.935700,7.508390C45.098300,7.345800,45.295700,7.264510,45.527900,7.264510L48.419500,7.264510C48.675000,7.264510,48.872500,7.345800,49.011800,7.508390C49.174400,7.647740,49.255700,7.845160,49.255700,8.100640L49.255700,31.163900C49.255700,31.396100,49.174400,31.593500,49.011800,31.756100C48.872500,31.918700,48.675000,32,48.419500,32L45.527900,32ZM54.573800,10.887700C54.341500,10.887700,54.144100,10.806500,53.981500,10.643900C53.818900,10.481300,53.737600,10.283900,53.737600,10.051600L53.737600,7.543220C53.737600,7.310970,53.818900,7.113550,53.981500,6.950970C54.144100,6.788390,54.341500,6.707100,54.573800,6.707100L57.744100,6.707100C57.976300,6.707100,58.173800,6.788390,58.336300,6.950970C58.522100,7.113550,58.615000,7.310970,58.615000,7.543220L58.615000,10.051600C58.615000,10.283900,58.533800,10.481300,58.371200,10.643900C58.208600,10.806500,57.999600,10.887700,57.744100,10.887700L54.573800,10.887700ZM54.713100,32C54.480800,32,54.283400,31.918700,54.120800,31.756100C53.958300,31.593500,53.877000,31.396100,53.877000,31.163900L53.877000,14.720000C53.877000,14.487700,53.958300,14.290300,54.120800,14.127700C54.283400,13.965200,54.480800,13.883900,54.713100,13.883900L57.604700,13.883900C57.860200,13.883900,58.057600,13.965200,58.197000,14.127700C58.359600,14.267100,58.440800,14.464500,58.440800,14.720000L58.440800,31.163900C58.440800,31.396100,58.359600,31.593500,58.197000,31.756100C58.057600,31.918700,57.860200,32,57.604700,32L54.713100,32ZM63.899100,32C63.666800,32,63.469400,31.918700,63.306800,31.756100C63.144300,31.593500,63.063000,31.396100,63.063000,31.163900L63.063000,14.720000C63.063000,14.487700,63.144300,14.290300,63.306800,14.127700C63.469400,13.965200,63.666800,13.883900,63.899100,13.883900L66.755900,13.883900C66.988100,13.883900,67.185500,13.965200,67.348100,14.127700C67.510700,14.290300,67.592000,14.487700,67.592000,14.720000L67.592000,16.148400C68.962300,14.406500,70.901700,13.535500,73.410100,13.535500C75.546800,13.535500,77.242300,14.243900,78.496500,15.660600C79.750700,17.054200,80.377800,18.958700,80.377800,21.374200L80.377800,31.163900C80.377800,31.396100,80.296500,31.593500,80.133900,31.756100C79.994600,31.918700,79.797200,32,79.541700,32L76.475900,32C76.243600,32,76.046200,31.918700,75.883600,31.756100C75.721000,31.593500,75.639700,31.396100,75.639700,31.163900L75.639700,21.583200C75.639700,20.212900,75.303000,19.156100,74.629400,18.412900C73.979100,17.646500,73.026800,17.263200,71.772600,17.263200C70.541700,17.263200,69.566200,17.646500,68.846200,18.412900C68.149400,19.179400,67.801000,20.236100,67.801000,21.583200L67.801000,31.163900C67.801000,31.396100,67.719700,31.593500,67.557200,31.756100C67.417800,31.918700,67.220400,32,66.964900,32L63.899100,32ZM92.607000,32.348400C90.028900,32.348400,87.973500,31.605200,86.440600,30.118700C84.930900,28.609000,84.129600,26.495500,84.036700,23.778100L84.001800,22.907100L84.036700,22.036100C84.152800,19.388400,84.965700,17.309700,86.475400,15.800000C88.008300,14.290300,90.052200,13.535500,92.607000,13.535500C95.347700,13.535500,97.461200,14.371600,98.947700,16.043900C100.457000,17.716100,101.212000,19.945800,101.212000,22.732900L101.212000,23.464500C101.212000,23.696800,101.131000,23.894200,100.968000,24.056800C100.806000,24.219400,100.597000,24.300600,100.341000,24.300600L88.774800,24.300600L88.774800,24.579400C88.821200,25.856800,89.169600,26.936800,89.819900,27.819400C90.493500,28.678700,91.410900,29.108400,92.572200,29.108400C93.942500,29.108400,95.045700,28.574200,95.881800,27.505800C96.090900,27.250300,96.253500,27.087700,96.369600,27.018100C96.508900,26.948400,96.706400,26.913500,96.961800,26.913500L99.958000,26.913500C100.167000,26.913500,100.341000,26.983200,100.481000,27.122600C100.643000,27.238700,100.724000,27.389700,100.724000,27.575500C100.724000,28.132900,100.388000,28.794800,99.714100,29.561300C99.063800,30.304500,98.123100,30.954800,96.892200,31.512300C95.661200,32.069700,94.232800,32.348400,92.607000,32.348400ZM96.474100,21.374200L96.474100,21.269700C96.474100,19.899400,96.125700,18.796100,95.428900,17.960000C94.755400,17.123900,93.814800,16.705800,92.607000,16.705800C91.399300,16.705800,90.458600,17.123900,89.785100,17.960000C89.111500,18.796100,88.774800,19.899400,88.774800,21.269700L88.774800,21.374200L96.474100,21.374200Z" fill="rgb(13,68,77)" stroke="none" stroke-width="1"/><path id="en97xu9ih6k8" d="M2.194840,73.806400C1.939350,73.806400,1.730320,73.725200,1.567740,73.562600C1.428390,73.400000,1.358710,73.191000,1.358710,72.935500L1.358710,70.496800C1.358710,70.101900,1.440000,69.800000,1.602580,69.591000C1.765160,69.358700,1.858060,69.231000,1.881290,69.207700L14.005200,53.530300L2.543230,53.530300C2.310970,53.530300,2.113550,53.449000,1.950970,53.286400C1.788390,53.123900,1.707100,52.926400,1.707100,52.694200L1.707100,50.290300C1.707100,50.034800,1.776770,49.825800,1.916130,49.663200C2.078710,49.500600,2.287740,49.419400,2.543230,49.419400L19.196100,49.419400C19.451600,49.419400,19.660600,49.500600,19.823200,49.663200C19.985800,49.825800,20.067100,50.034800,20.067100,50.290300L20.067100,52.694200C20.067100,53.112300,19.916100,53.518700,19.614200,53.913500L7.734190,69.660600L19.579400,69.660600C19.834800,69.660600,20.043900,69.741900,20.206500,69.904500C20.369000,70.067100,20.450300,70.276100,20.450300,70.531600L20.450300,72.970300C20.450300,73.225800,20.369000,73.434800,20.206500,73.597400C20.043900,73.736800,19.834800,73.806400,19.579400,73.806400L2.194840,73.806400Z" fill="rgb(13,68,77)" stroke="none" stroke-width="1"/><path id="en97xu9ih6k9" d="M44.101822,53.854424C44.137680,53.854424,44.173534,53.854424,44.245243,53.854424C44.352810,53.854424,44.496231,53.890278,44.675507,53.890278C44.890637,53.890278,45.103856,53.944016,45.356755,53.961987C45.607106,53.979779,45.859582,53.941285,46.109711,53.961987C46.327065,53.979977,46.575829,53.997845,46.790959,53.997845C47.006089,53.997845,47.292931,53.961987,47.508061,53.926133C47.723195,53.890279,47.974179,53.818566,48.189309,53.782712C48.404443,53.746858,48.508698,53.657353,48.655427,53.639291C48.762189,53.626146,48.856835,53.600705,48.870557,53.567582C48.889962,53.520734,48.960111,53.462674,48.978124,53.280740C48.999322,53.066655,49.006044,52.839059,48.906415,52.635350C48.792817,52.403085,48.629266,52.196881,48.476151,52.025811C48.307065,51.836896,48.126820,51.690759,47.938324,51.559693C47.766670,51.440339,47.579773,51.344563,47.436352,51.308709L47.328785,51.272855L47.257076,51.272855L47.221222,51.272855" fill="none" stroke="none" stroke-width="1"/><path id="en97xu9ih6k10" d="M47.091950,54.129490L49.157400,54.643240L46.425480,49.551810L46.046050,49.733650L43.923570,53.915890Z" fill="rgb(197,225,230)" stroke="none" stroke-width="1"/><g id="en97xu9ih6k11_to" transform="translate(84.295876,60.519287)"><path id="en97xu9ih6k11" d="M84.335076,51.482905C84.328376,51.472795,84.295876,51.431625,84.295876,51.431625L84.256676,51.478985L81.998676,55.470565C81.413876,56.914525,80.948076,58.651255,80.948076,60.519325C80.948076,65.537675,84.295876,69.606945,84.295876,69.606945C84.295876,69.606945,87.643676,65.537675,87.643676,60.519325C87.643676,58.891545,87.277776,57.386915,86.802376,56.066205L84.335076,51.482905Z" transform="translate(-84.295876,-60.519287)" fill="rgb(197,225,230)" stroke="none" stroke-width="1"/></g></g></svg>